#N canvas 0 57 1920 1023 16;
#X obj 788 820 s dnd-dropped;
#X obj 779 614 symbol;
#X obj 810 392 route mouseup;
#X obj 806 340 spigot;
#X obj 747 116 t b;
#X msg 1048 291 1;
#X msg 978 291 0;
#N canvas 0 50 923 636 dnd/target 0;
#X obj 348 12 r dnd-dropped;
#X obj 46 332 list append;
#X obj 328 127 t l b;
#X msg 605 178 1;
#X obj 182 241 spigot;
#X msg 661 176 0;
#X obj 47 362 list split 2;
#X obj 111 95 inlet;
#X text 499 375 <- avoid white space problems;
#N canvas 696 149 327 493 tosymbol 0;
#X text 65 454 symbol out with correct spaces;
#X text 81 12 string in;
#X obj 91 31 inlet;
#X obj 91 431 outlet;
#X obj 85 31 cnv 5 5 17 empty empty empty 20 12 0 14 -118750 -66577
0;
#X obj 85 431 cnv 5 5 17 empty empty empty 20 12 0 14 -102336 -66577
0;
#X obj 91 55 list;
#X obj 91 193 list store, f 13;
#X obj 91 102 until;
#X obj 91 128 f, f 7;
#X obj 153 128 + 1;
#X msg 91 171 get \$1 1;
#X obj 134 103 0;
#X obj 91 263 list fromsymbol;
#X obj 91 215 route symbol float;
#X obj 109 239 makefilename %s;
#X obj 91 150 t f f;
#X obj 91 380 list store, f 19;
#X obj 91 355 list trim;
#X obj 91 332 list prepend append;
#X obj 157 286 spigot;
#X msg 157 308 32;
#X obj 91 286 t l b, f 9;
#X obj 91 77 t b b a b, f 19;
#X obj 91 404 list tosymbol;
#X connect 2 0 6 0;
#X connect 6 0 23 0;
#X connect 7 0 14 0;
#X connect 7 1 8 1;
#X connect 7 1 17 0;
#X connect 8 0 9 0;
#X connect 9 0 10 0;
#X connect 9 0 16 0;
#X connect 10 0 9 1;
#X connect 11 0 7 0;
#X connect 12 0 9 1;
#X connect 13 0 22 0;
#X connect 14 0 13 0;
#X connect 14 1 15 0;
#X connect 15 0 13 0;
#X connect 16 0 11 0;
#X connect 16 1 20 1;
#X connect 17 0 24 0;
#X connect 18 0 17 0;
#X connect 19 0 18 0;
#X connect 20 0 21 0;
#X connect 21 0 19 0;
#X connect 22 0 19 0;
#X connect 22 1 20 0;
#X connect 23 0 8 0;
#X connect 23 1 12 0;
#X connect 23 2 7 1;
#X connect 23 3 17 1;
#X connect 24 0 3 0;
#X restore 215 363 pd tosymbol;
#N canvas 696 149 327 493 tosymbol 0;
#X text 65 454 symbol out with correct spaces;
#X text 81 12 string in;
#X obj 91 31 inlet;
#X obj 91 431 outlet;
#X obj 85 31 cnv 5 5 17 empty empty empty 20 12 0 14 -118750 -66577
0;
#X obj 85 431 cnv 5 5 17 empty empty empty 20 12 0 14 -102336 -66577
0;
#X obj 91 55 list;
#X obj 91 193 list store, f 13;
#X obj 91 102 until;
#X obj 91 128 f, f 7;
#X obj 153 128 + 1;
#X msg 91 171 get \$1 1;
#X obj 134 103 0;
#X obj 91 263 list fromsymbol;
#X obj 91 215 route symbol float;
#X obj 109 239 makefilename %s;
#X obj 91 150 t f f;
#X obj 91 380 list store, f 19;
#X obj 91 355 list trim;
#X obj 91 332 list prepend append;
#X obj 157 286 spigot;
#X msg 157 308 32;
#X obj 91 286 t l b, f 9;
#X obj 91 77 t b b a b, f 19;
#X obj 91 404 list tosymbol;
#X connect 2 0 6 0;
#X connect 6 0 23 0;
#X connect 7 0 14 0;
#X connect 7 1 8 1;
#X connect 7 1 17 0;
#X connect 8 0 9 0;
#X connect 9 0 10 0;
#X connect 9 0 16 0;
#X connect 10 0 9 1;
#X connect 11 0 7 0;
#X connect 12 0 9 1;
#X connect 13 0 22 0;
#X connect 14 0 13 0;
#X connect 14 1 15 0;
#X connect 15 0 13 0;
#X connect 16 0 11 0;
#X connect 16 1 20 1;
#X connect 17 0 24 0;
#X connect 18 0 17 0;
#X connect 19 0 18 0;
#X connect 20 0 21 0;
#X connect 21 0 19 0;
#X connect 22 0 19 0;
#X connect 22 1 20 0;
#X connect 23 0 8 0;
#X connect 23 1 12 0;
#X connect 23 2 7 1;
#X connect 23 3 17 1;
#X connect 24 0 3 0;
#X restore 347 412 pd tosymbol;
#X obj 81 393 outlet;
#X obj 219 340 list append;
#X obj 353 386 list append;
#X obj 506 348 list append;
#X obj 216 394 outlet;
#X obj 363 441 outlet;
#X obj 508 408 outlet;
#X obj 811 276 == 0;
#X obj 782 305 spigot 1;
#X obj 349 80 route -drop -path -name -ext -done;
#X obj 662 140 t b;
#X obj 181 293 t b b b b;
#X text 37 34 by jyg https://github.com/jyg;
#X obj 787 440 outlet;
#X obj 608 210 t f f;
#X connect 0 0 20 0;
#X connect 1 0 6 0;
#X connect 2 0 1 1;
#X connect 2 1 3 0;
#X connect 3 0 25 0;
#X connect 4 0 22 0;
#X connect 5 0 25 0;
#X connect 6 1 11 0;
#X connect 7 0 4 0;
#X connect 7 0 19 0;
#X connect 9 0 15 0;
#X connect 10 0 16 0;
#X connect 12 0 9 0;
#X connect 13 0 10 0;
#X connect 14 0 17 0;
#X connect 18 0 19 1;
#X connect 19 0 24 0;
#X connect 20 0 2 0;
#X connect 20 1 12 1;
#X connect 20 2 13 1;
#X connect 20 3 14 1;
#X connect 20 4 21 0;
#X connect 21 0 5 0;
#X connect 22 0 1 0;
#X connect 22 1 12 0;
#X connect 22 2 13 0;
#X connect 22 3 14 0;
#X connect 25 0 4 1;
#X connect 25 1 18 0;
#X restore 97 284 pd dnd/target;
#X msg 665 667 -done;
#X obj 820 428 t b l b l b;
#X obj 790 725 list append;
#X msg 800 756 -drop list \$2 \$3 \$1;
#X msg 918 630 mouse \$1 \$2 1 0 \, mouseup \$1 \$2 1;
#X obj 806 576 list append;
#X obj 748 492 t b b b b;
#X obj 104 328 list prepend 0;
#X obj 104 357 route 0 1;
#X msg 840 539 1;
#X msg 759 547 0;
#X obj 105 586 symbol;
#X obj 156 407 t b;
#X obj 157 445 openpanel;
#X msg 968 492 color 5 5 -1;
#X obj 91 107 t b b;
#X obj 91 136 delay 400;
#X msg 91 165 0;
#X msg 144 171 1;
#X obj 101 218 change;
#X obj 101 247 select 1;
#X text 203 170 debounce;
#X msg 96 703 label \$1;
#X obj 1241 53 iemguts/receivecanvas 1;
#X obj 982 818 iemguts/sendcanvas 1;
#X msg 119 677 symbol;
#X obj 978 340 spigot;
#X obj 973 376 route motion;
#X obj 971 550 s \$0-mousepad-rcv;
#X msg 1207 495 pos \$1 \$2;
#X msg 1454 566 pos 300 300;
#X obj 1376 851 s \$0-cnv;
#X obj 1299 329 unpack f f;
#X obj 1426 326 unpack f f;
#X obj 1299 358 -;
#X obj 1429 359 -;
#X obj 1354 450 pack f f;
#X obj 3 0 hsl 184 70 0 127 0 0 empty \$0-mousepad-rcv dnd-path 0 10
0 16 -262131 -262131 -1 0 0;
#N canvas 486 50 625 667 parsing 0;
#X text 30 16 string in;
#X obj 40 35 inlet;
#X obj 34 35 cnv 5 5 17 empty empty empty 20 12 0 14 -118750 -66577
0;
#X obj 40 58 list;
#X obj 40 232 list store, f 13;
#X obj 40 137 until;
#X obj 40 163 f, f 7;
#X obj 102 163 + 1;
#X msg 40 206 get \$1 1;
#X obj 83 138 0;
#X obj 40 308 list fromsymbol;
#X obj 40 260 route symbol float;
#X obj 58 284 makefilename %s;
#X obj 40 185 t f f;
#X obj 40 435 list store, f 19;
#X obj 40 410 list trim;
#X obj 40 387 list prepend append;
#X obj 106 331 spigot;
#X msg 106 359 32;
#X obj 40 331 t l b, f 9;
#X obj 40 112 t b b a b, f 19;
#X text 48 78 turn everything to ascii numbers, f 18;
#X text 141 352 "32" for each space, f 10;
#X obj 40 582 outlet;
#X obj 34 582 cnv 5 5 17 empty empty empty 20 12 0 14 -102336 -66577
0;
#X obj 40 465 list tosymbol;
#X obj 302 578 list tosymbol;
#X obj 434 583 list tosymbol;
#X obj 158 553 list tosymbol;
#X obj 158 577 outlet;
#X obj 152 577 cnv 5 5 17 empty empty empty 20 12 0 14 -102336 -66577
0;
#X text 11 602 full filename with correct spaces, f 18;
#X text 149 596 path with correct spaces, f 15;
#X text 288 624 name with correct spaces, f 15;
#X text 424 625 extension, f 10;
#X obj 302 602 outlet;
#X obj 296 602 cnv 5 5 17 empty empty empty 20 12 0 14 -102336 -66577
0;
#X obj 434 606 outlet;
#X obj 428 606 cnv 5 5 17 empty empty empty 20 12 0 14 -102336 -66577
0;
#X obj 309 220 list store, f 11;
#X obj 309 75 until, f 8;
#X obj 309 99 f;
#X msg 309 197 get \$1 1;
#X obj 391 76 list length;
#X obj 391 99 - 1;
#X obj 350 99 - 1;
#X obj 309 145 sel -1;
#X obj 342 169 t f f, f 8;
#X obj 269 266 select 46;
#X obj 269 292 f;
#X text 272 245 find last dot;
#X obj 423 265 select 47;
#X text 432 244 find last slash;
#X obj 423 291 f;
#X obj 269 315 spigot;
#X obj 269 340 t f b;
#X msg 316 325 0;
#X obj 309 53 t b l l b, f 22;
#X msg 456 98 1;
#X obj 423 312 spigot;
#X obj 423 338 t f b;
#X msg 470 322 0;
#X obj 317 376 pack 0 0 0;
#X msg 486 98 -1;
#X msg 496 415 \$2;
#X obj 496 461 sel -1;
#X msg 496 490 symbol none, f 6;
#X obj 372 430 list store, f 12;
#X obj 400 556 list split 1;
#X obj 400 518 list split;
#X obj 268 430 list store;
#X obj 317 398 t b b l, f 19;
#X msg 552 415 \$2 \$3;
#X obj 552 438 -;
#X obj 268 466 list split;
#X msg 459 415 \$3;
#X obj 317 519 list split;
#X obj 268 553 list split 1;
#X obj 268 495 spigot;
#X obj 317 495 spigot;
#X obj 552 538 > 0;
#X obj 552 561 == 0;
#X text 282 13 list drip reverse to check for last dot and last slash
in a full name, f 35;
#X text 515 98 defaults;
#X obj 41 554 symbol;
#X obj 41 527 t b l, f 20;
#X obj 400 493 spigot;
#X obj 449 461 > 0;
#X connect 1 0 3 0;
#X connect 3 0 20 0;
#X connect 4 0 11 0;
#X connect 4 1 5 1;
#X connect 4 1 14 0;
#X connect 5 0 6 0;
#X connect 6 0 7 0;
#X connect 6 0 13 0;
#X connect 7 0 6 1;
#X connect 8 0 4 0;
#X connect 9 0 6 1;
#X connect 10 0 19 0;
#X connect 11 0 10 0;
#X connect 11 1 12 0;
#X connect 12 0 10 0;
#X connect 13 0 8 0;
#X connect 13 1 17 1;
#X connect 14 0 25 0;
#X connect 14 0 57 0;
#X connect 15 0 14 0;
#X connect 16 0 15 0;
#X connect 17 0 18 0;
#X connect 18 0 16 0;
#X connect 19 0 16 0;
#X connect 19 1 17 0;
#X connect 20 0 5 0;
#X connect 20 1 9 0;
#X connect 20 2 4 1;
#X connect 20 3 14 1;
#X connect 25 0 84 1;
#X connect 26 0 35 0;
#X connect 27 0 37 0;
#X connect 28 0 29 0;
#X connect 39 0 48 0;
#X connect 39 0 51 0;
#X connect 40 0 41 0;
#X connect 41 0 45 0;
#X connect 41 0 46 0;
#X connect 42 0 39 0;
#X connect 43 0 44 0;
#X connect 44 0 41 1;
#X connect 45 0 41 1;
#X connect 46 0 40 1;
#X connect 46 0 62 0;
#X connect 46 1 47 0;
#X connect 47 0 42 0;
#X connect 47 1 49 1;
#X connect 47 1 53 1;
#X connect 48 0 49 0;
#X connect 49 0 54 0;
#X connect 51 0 53 0;
#X connect 53 0 59 0;
#X connect 54 0 55 0;
#X connect 55 0 62 1;
#X connect 55 1 56 0;
#X connect 56 0 54 1;
#X connect 57 0 40 0;
#X connect 57 1 39 1;
#X connect 57 2 43 0;
#X connect 57 2 67 1;
#X connect 57 2 70 1;
#X connect 57 3 58 0;
#X connect 57 3 63 0;
#X connect 58 0 54 1;
#X connect 58 0 59 1;
#X connect 59 0 60 0;
#X connect 60 0 62 2;
#X connect 60 1 61 0;
#X connect 61 0 59 1;
#X connect 62 0 71 0;
#X connect 63 0 62 1;
#X connect 63 0 62 2;
#X connect 64 0 65 0;
#X connect 64 0 87 0;
#X connect 65 0 66 0;
#X connect 65 1 69 1;
#X connect 66 0 37 0;
#X connect 67 0 86 0;
#X connect 68 1 27 0;
#X connect 69 1 68 0;
#X connect 70 0 74 0;
#X connect 71 0 70 0;
#X connect 71 1 67 0;
#X connect 71 2 64 0;
#X connect 71 2 72 0;
#X connect 71 2 75 0;
#X connect 72 0 73 0;
#X connect 73 0 76 1;
#X connect 73 0 80 0;
#X connect 74 0 85 0;
#X connect 74 1 78 0;
#X connect 74 1 79 0;
#X connect 75 0 74 1;
#X connect 76 0 77 0;
#X connect 77 1 26 0;
#X connect 78 0 77 0;
#X connect 79 0 76 0;
#X connect 80 0 81 0;
#X connect 80 0 79 1;
#X connect 81 0 78 1;
#X connect 84 0 23 0;
#X connect 85 0 84 0;
#X connect 85 1 28 0;
#X connect 86 0 69 0;
#X connect 87 0 86 1;
#X restore 1372 713 pd parsing;
#X obj 1434 764 pack s s;
#X msg 1416 802 label \$1.\$2;
#X obj 1476 426 - 20;
#X obj 1240 254 route mouse zoom;
#X obj 1361 393 / 1;
#X obj 1469 390 / 1;
#X msg 1351 497 pos 0 0;
#X msg 1600 423 color 5 -1;
#X msg 1606 460 color 15 -1;
#X obj 0 0 cnv 15 190 70 empty \$0-cnv dnd-path 2 10 0 16 -262131 -66577
0;
#X obj 1 40 cnv 1 1 1 empty \$0-filepath-rcv empty 0 5 0 10 -262130
-66577 0;
#X obj 92 878 s \$0-filepath-rcv;
#X obj 104 549 r \$0-fullpath;
#X obj 87 480 s \$0-fullpath;
#N canvas 0 57 1920 1023 inserting_return_carriage 0;
#X obj 200 80 list fromsymbol;
#X obj 326 316 list prepend 10;
#X obj 184 354 list append;
#X obj 203 37 inlet;
#X obj 185 471 list tosymbol;
#X obj 185 500 outlet;
#X obj 261 158 route bang;
#N canvas 806 137 636 476 inserting_return_carriage 0;
#X obj 357 237 list prepend 10;
#X obj 200 255 list append;
#X obj 261 158 route bang;
#X obj 204 66 inlet;
#X obj 200 284 outlet;
#X obj 202 117 list split 30;
#N canvas 806 137 636 476 inserting_return_carriage 0;
#X obj 350 216 list prepend 10;
#X obj 200 255 list append;
#X obj 261 158 route bang;
#X obj 204 66 inlet;
#X obj 200 284 outlet;
#X obj 202 117 list split 30;
#X connect 0 0 1 1;
#X connect 1 0 4 0;
#X connect 2 0 1 1;
#X connect 2 1 0 0;
#X connect 3 0 5 0;
#X connect 5 0 1 0;
#X connect 5 1 2 0;
#X connect 5 2 4 0;
#X restore 373 194 pd inserting_return_carriage;
#X connect 0 0 1 1;
#X connect 1 0 4 0;
#X connect 2 0 1 1;
#X connect 2 1 6 0;
#X connect 3 0 5 0;
#X connect 5 0 1 0;
#X connect 5 1 2 0;
#X connect 5 2 4 0;
#X connect 6 0 0 0;
#X restore 347 240 pd inserting_return_carriage;
#X obj 202 117 list split 30;
#X connect 0 0 8 0;
#X connect 1 0 2 1;
#X connect 2 0 4 0;
#X connect 3 0 0 0;
#X connect 4 0 5 0;
#X connect 6 0 2 1;
#X connect 6 1 7 0;
#X connect 7 0 1 0;
#X connect 8 0 2 0;
#X connect 8 1 6 0;
#X connect 8 2 4 0;
#X restore 97 636 pd inserting_return_carriage;
#X msg 147 807 pos 1 40;
#X msg 1099 288 color 15 15 13;
#X msg 1536 515 label dnd-path;
#X obj 1650 135 r \$0-fullpath;
#X obj 1536 190 list append;
#X obj 1676 250 savestate;
#X obj 1536 219 list prepend -fullpath;
#X obj 1712 284 list trim;
#X obj 1712 313 route -fullpath;
#X obj 1682 350 s \$0-fullpath;
#X obj 982 23 inlet iemguts/receivecanvas x;
#X obj 986 874 outlet iemguts/sendcanvas 1;
#X connect 1 0 10 0;
#X connect 2 0 9 0;
#X connect 3 0 2 0;
#X connect 4 0 5 0;
#X connect 4 0 63 0;
#X connect 4 0 55 0;
#X connect 5 0 3 1;
#X connect 5 0 34 1;
#X connect 6 0 3 1;
#X connect 6 0 34 1;
#X connect 7 0 15 0;
#X connect 7 4 4 0;
#X connect 8 0 0 0;
#X connect 9 0 14 0;
#X connect 9 1 13 1;
#X connect 9 2 1 0;
#X connect 9 3 10 1;
#X connect 9 4 6 0;
#X connect 9 4 22 0;
#X connect 9 4 53 0;
#X connect 9 4 54 0;
#X connect 10 0 11 0;
#X connect 11 0 0 0;
#X connect 12 0 32 0;
#X connect 12 0 73 0;
#X connect 13 0 12 0;
#X connect 14 0 8 0;
#X connect 14 1 18 0;
#X connect 14 2 13 0;
#X connect 14 3 17 0;
#X connect 15 0 16 0;
#X connect 16 0 60 0;
#X connect 16 1 20 0;
#X connect 17 0 15 1;
#X connect 18 0 15 1;
#X connect 19 0 1 1;
#X connect 19 0 46 0;
#X connect 19 0 61 0;
#X connect 20 0 21 0;
#X connect 21 0 60 0;
#X connect 22 0 36 0;
#X connect 23 0 24 0;
#X connect 23 1 26 0;
#X connect 24 0 25 0;
#X connect 25 0 27 0;
#X connect 26 0 27 0;
#X connect 27 0 28 0;
#X connect 28 0 7 0;
#X connect 30 0 58 0;
#X connect 31 0 3 0;
#X connect 31 0 34 0;
#X connect 31 0 50 0;
#X connect 33 0 30 0;
#X connect 34 0 35 0;
#X connect 35 0 40 0;
#X connect 37 0 39 0;
#X connect 38 0 39 0;
#X connect 40 0 42 0;
#X connect 40 1 43 0;
#X connect 41 0 42 1;
#X connect 41 1 43 1;
#X connect 42 0 51 0;
#X connect 43 0 52 0;
#X connect 44 0 37 0;
#X connect 45 0 23 0;
#X connect 46 2 47 0;
#X connect 46 3 47 1;
#X connect 47 0 48 0;
#X connect 48 0 39 0;
#X connect 48 0 36 0;
#X connect 49 0 44 1;
#X connect 50 0 41 0;
#X connect 50 1 51 1;
#X connect 50 1 52 1;
#X connect 51 0 44 0;
#X connect 52 0 49 0;
#X connect 53 0 39 0;
#X connect 54 0 39 0;
#X connect 55 0 39 0;
#X connect 59 0 19 0;
#X connect 61 0 30 0;
#X connect 62 0 58 0;
#X connect 63 0 36 0;
#X connect 64 0 39 0;
#X connect 64 0 36 0;
#X connect 65 0 66 1;
#X connect 66 0 68 0;
#X connect 67 0 69 0;
#X connect 67 1 66 0;
#X connect 68 0 67 0;
#X connect 69 0 70 0;
#X connect 70 0 71 0;
#X connect 72 0 3 0;
#X connect 72 0 34 0;
#X connect 72 0 50 0;
#X coords 0 -1 1 1 190 70 1 0 0;
